<svg viewBox="0 0 82 77" fill="none" xmlns="http://www.w3.org/2000/svg">
    <rect x="11" width="60" height="60" rx="15" fill="#5DADA8"/>
    <path d="M25.8787 25.8366C25.6707 25.8385 25.4659 25.7853 25.285 25.6824C25.1524 25.6079 25.036 25.5076 24.9426 25.3876C24.8492 25.2675 24.7807 25.13 24.741 24.9831C24.7014 24.8362 24.6915 24.6829 24.7118 24.5321C24.7321 24.3814 24.7823 24.2362 24.8595 24.105C26.3459 21.624 30.8684 15.8333 40.7368 15.8333C45.0134 15.8333 48.7642 16.9566 51.8797 19.1708C54.4439 20.988 55.881 23.0449 56.5656 24.0356C56.6525 24.1605 56.7134 24.3015 56.745 24.4503C56.7765 24.5991 56.7779 24.7527 56.7492 24.902C56.7204 25.0514 56.6621 25.1935 56.5776 25.32C56.4931 25.4464 56.3842 25.5547 56.2572 25.6385C55.9978 25.81 55.6817 25.8738 55.376 25.8162C55.0703 25.7586 54.799 25.5843 54.6197 25.3301C53.3808 23.5484 49.603 18.1269 40.7368 18.1269C32.0827 18.1269 28.17 23.1159 26.8956 25.2553C26.7932 25.434 26.645 25.582 26.4662 25.6842C26.2874 25.7864 26.0846 25.839 25.8787 25.8366Z" fill="white"/>
    <path d="M45.7088 48.5031C45.6104 48.5043 45.5123 48.4932 45.4166 48.47C38.2582 46.6968 35.5852 39.5406 35.4765 39.243L35.4595 39.1775C35.4009 38.9709 33.9646 34.0636 36.1696 31.1895C37.1803 29.8788 38.7177 29.2065 40.7476 29.2065C42.635 29.2065 43.9965 29.7932 44.9324 31.0075C45.7034 31.999 46.0118 33.2217 46.3102 34.3998C46.937 36.853 47.3895 38.1413 49.9946 38.2739C51.1388 38.3317 51.8905 37.6625 52.3168 37.0928C53.4694 35.5393 53.6699 33.0066 52.801 30.7708C51.6846 27.8851 47.7226 22.4444 40.7368 22.4444C37.7547 22.4444 35.0147 23.4027 32.8174 25.2037C30.9987 26.6955 29.5578 28.8018 28.8639 30.9667C27.5771 34.9973 29.2648 41.3331 29.281 41.3909C29.3204 41.5384 29.3299 41.6923 29.3089 41.8434C29.2879 41.9946 29.2368 42.1401 29.1587 42.2712C29.0806 42.4023 28.977 42.5165 28.8541 42.607C28.7312 42.6974 28.5914 42.7624 28.4429 42.798C28.1431 42.8777 27.8239 42.8368 27.5538 42.6841C27.2838 42.5313 27.0843 42.2788 26.9981 41.9807C26.921 41.6916 25.1185 34.9341 26.6049 30.2759C28.224 25.2283 33.2206 20.1399 40.7391 20.1399C44.2139 20.1399 47.4967 21.321 50.2367 23.5515C52.3584 25.2861 54.0916 27.616 54.9982 29.9451C56.1508 32.9188 55.8417 36.2563 54.2126 38.4366C53.1271 39.8906 51.5813 40.6508 49.869 40.5683C45.4081 40.3447 44.6063 37.2308 44.0219 34.9595C43.4206 32.6296 43.0359 31.5063 40.7391 31.5063C39.4778 31.5063 38.592 31.8533 38.0407 32.5718C37.289 33.5548 37.2305 35.0913 37.3137 36.2062C37.3684 36.9829 37.5001 37.7522 37.7069 38.5029C37.8904 38.9655 40.2796 44.8248 46.0018 46.2427C46.1497 46.2777 46.2891 46.3418 46.4121 46.4312C46.535 46.5206 46.6389 46.6335 46.7178 46.7634C46.7967 46.8933 46.849 47.0376 46.8717 47.1879C46.8944 47.3382 46.8869 47.4915 46.8499 47.6389C46.78 47.8877 46.6307 48.1069 46.4247 48.2629C46.2187 48.419 45.9673 48.5033 45.7088 48.5031Z" fill="white"/>
    <path d="M36.5204 47.9743C36.36 47.9746 36.2011 47.9426 36.0533 47.8803C35.9054 47.8179 35.7717 47.7264 35.66 47.6112C32.7951 44.6044 31.1745 41.2422 30.5647 37.0381V37.0157C30.2223 34.2325 30.7235 30.2921 33.179 27.5829C34.9916 25.5838 37.5396 24.5676 40.7391 24.5676C44.5231 24.5676 47.4967 26.327 49.3509 29.6476C50.6962 32.0599 50.963 34.4638 50.9699 34.5625C50.984 34.7146 50.968 34.8681 50.9227 35.014C50.8774 35.16 50.8038 35.2956 50.706 35.413C50.6083 35.5304 50.4883 35.6275 50.353 35.6985C50.2177 35.7695 50.0697 35.8131 49.9175 35.8269C49.6105 35.8602 49.3026 35.7714 49.0604 35.5797C48.8182 35.388 48.6612 35.1088 48.6231 34.8023C48.42 33.3599 47.9533 31.9672 47.2461 30.6938C45.809 28.158 43.6226 26.869 40.7307 26.869C38.2327 26.869 36.2783 27.6207 34.9337 29.1048C32.9955 31.2442 32.6208 34.5401 32.8868 36.7204C33.4211 40.4381 34.8497 43.3955 37.3723 46.0384C37.4776 46.1479 37.5598 46.2775 37.614 46.4194C37.6682 46.5613 37.6933 46.7127 37.6879 46.8646C37.6824 47.0164 37.6465 47.1656 37.5822 47.3032C37.5179 47.4409 37.4266 47.5642 37.3137 47.6659C37.0963 47.863 36.8138 47.9728 36.5204 47.9743Z" fill="white"/>
    <path d="M49.7186 44.6622C47.213 44.6622 45.0828 43.9683 43.3782 42.5891C39.9535 39.8298 39.5696 35.3358 39.5526 35.1461C39.5285 34.8348 39.629 34.5266 39.8321 34.2895C40.0352 34.0523 40.3241 33.9055 40.6355 33.8813C40.9468 33.8572 41.2549 33.9577 41.4921 34.1608C41.7293 34.3639 41.8761 34.6528 41.9002 34.9642C41.9087 35.0305 42.251 38.7064 44.8908 40.8235C46.4528 42.071 48.5406 42.5659 51.1133 42.2768C51.4208 42.2395 51.7306 42.3255 51.9749 42.5159C52.2192 42.7063 52.3781 42.9857 52.417 43.293C52.4339 43.4447 52.4203 43.5984 52.3772 43.7449C52.334 43.8914 52.2621 44.0278 52.1656 44.1462C52.0692 44.2646 51.9501 44.3627 51.8154 44.4346C51.6806 44.5065 51.5329 44.5508 51.3809 44.5651C50.8291 44.6294 50.2741 44.6619 49.7186 44.6622Z" fill="white"/>
    <path d="M51.6985 14.0246C50.7209 13.3885 47.2546 11.4966 40.7368 11.4966C33.8953 11.4966 30.4205 13.5867 29.6518 14.1179C29.6011 14.149 29.5535 14.1852 29.51 14.2258C29.5054 14.2303 29.4994 14.233 29.493 14.2335C29.3703 14.3407 29.2718 14.4728 29.2041 14.621C29.1364 14.7693 29.1011 14.9302 29.1006 15.0932C29.1027 15.2459 29.1349 15.3967 29.1954 15.537C29.2559 15.6773 29.3435 15.8042 29.4532 15.9106C29.5628 16.0169 29.6924 16.1006 29.8344 16.1568C29.9765 16.213 30.1282 16.2406 30.2809 16.238C30.5258 16.2379 30.7646 16.1628 30.9656 16.0229C30.9987 15.9983 33.9893 13.801 40.7392 13.801C47.489 13.801 50.4958 15.9906 50.5282 16.0068C50.7334 16.159 50.9827 16.2402 51.2382 16.238C51.3911 16.2404 51.5429 16.2125 51.685 16.156C51.827 16.0996 51.9566 16.0156 52.0661 15.9089C52.1756 15.8023 52.263 15.675 52.3232 15.5345C52.3835 15.394 52.4153 15.2429 52.417 15.0901C52.4171 14.8611 52.3487 14.6373 52.2207 14.4475C52.0927 14.2576 51.9108 14.1103 51.6985 14.0246Z" fill="white"/>
    <path d="M6.00316 71.37C6.40983 71.4833 6.72983 71.69 6.96316 71.99C7.1965 72.2833 7.31316 72.6567 7.31316 73.11C7.31316 73.7167 7.08316 74.1833 6.62316 74.51C6.16983 74.8367 5.5065 75 4.63316 75H1.29316V68H4.43316C5.23316 68 5.84983 68.16 6.28316 68.48C6.72316 68.8 6.94316 69.2433 6.94316 69.81C6.94316 70.1767 6.8565 70.4933 6.68316 70.76C6.5165 71.0267 6.28983 71.23 6.00316 71.37ZM2.29316 68.81V71.05H4.34316C4.8565 71.05 5.24983 70.9567 5.52316 70.77C5.80316 70.5767 5.94316 70.2967 5.94316 69.93C5.94316 69.5633 5.80316 69.2867 5.52316 69.1C5.24983 68.9067 4.8565 68.81 4.34316 68.81H2.29316ZM4.59316 74.19C5.15983 74.19 5.5865 74.0967 5.87316 73.91C6.15983 73.7233 6.30316 73.43 6.30316 73.03C6.30316 72.25 5.73316 71.86 4.59316 71.86H2.29316V74.19H4.59316ZM8.72152 69.7H9.68152V75H8.72152V69.7ZM9.20152 68.68C9.01486 68.68 8.85819 68.62 8.73152 68.5C8.61152 68.38 8.55152 68.2333 8.55152 68.06C8.55152 67.8867 8.61152 67.74 8.73152 67.62C8.85819 67.4933 9.01486 67.43 9.20152 67.43C9.38819 67.43 9.54152 67.49 9.66152 67.61C9.78819 67.7233 9.85152 67.8667 9.85152 68.04C9.85152 68.22 9.78819 68.3733 9.66152 68.5C9.54152 68.62 9.38819 68.68 9.20152 68.68ZM13.7845 75.06C13.2578 75.06 12.7845 74.9433 12.3645 74.71C11.9445 74.4767 11.6145 74.1567 11.3745 73.75C11.1412 73.3367 11.0245 72.87 11.0245 72.35C11.0245 71.83 11.1412 71.3667 11.3745 70.96C11.6145 70.5467 11.9445 70.2267 12.3645 70C12.7845 69.7667 13.2578 69.65 13.7845 69.65C14.3112 69.65 14.7812 69.7667 15.1945 70C15.6145 70.2267 15.9412 70.5467 16.1745 70.96C16.4145 71.3667 16.5345 71.83 16.5345 72.35C16.5345 72.87 16.4145 73.3367 16.1745 73.75C15.9412 74.1567 15.6145 74.4767 15.1945 74.71C14.7812 74.9433 14.3112 75.06 13.7845 75.06ZM13.7845 74.22C14.1245 74.22 14.4278 74.1433 14.6945 73.99C14.9678 73.83 15.1812 73.61 15.3345 73.33C15.4878 73.0433 15.5645 72.7167 15.5645 72.35C15.5645 71.9833 15.4878 71.66 15.3345 71.38C15.1812 71.0933 14.9678 70.8733 14.6945 70.72C14.4278 70.5667 14.1245 70.49 13.7845 70.49C13.4445 70.49 13.1378 70.5667 12.8645 70.72C12.5978 70.8733 12.3845 71.0933 12.2245 71.38C12.0712 71.66 11.9945 71.9833 11.9945 72.35C11.9945 72.7167 12.0712 73.0433 12.2245 73.33C12.3845 73.61 12.5978 73.83 12.8645 73.99C13.1378 74.1433 13.4445 74.22 13.7845 74.22ZM24.4921 69.65C25.1588 69.65 25.6855 69.8433 26.0721 70.23C26.4655 70.6167 26.6621 71.19 26.6621 71.95V75H25.7021V72.06C25.7021 71.5467 25.5821 71.16 25.3421 70.9C25.1088 70.64 24.7721 70.51 24.3321 70.51C23.8455 70.51 23.4588 70.6633 23.1721 70.97C22.8855 71.27 22.7421 71.7033 22.7421 72.27V75H21.7821V72.06C21.7821 71.5467 21.6621 71.16 21.4221 70.9C21.1888 70.64 20.8521 70.51 20.4121 70.51C19.9255 70.51 19.5388 70.6633 19.2521 70.97C18.9655 71.27 18.8221 71.7033 18.8221 72.27V75H17.8621V69.7H18.7821V70.49C18.9755 70.2167 19.2288 70.01 19.5421 69.87C19.8555 69.7233 20.2121 69.65 20.6121 69.65C21.0255 69.65 21.3921 69.7333 21.7121 69.9C22.0321 70.0667 22.2788 70.31 22.4521 70.63C22.6521 70.3233 22.9288 70.0833 23.2821 69.91C23.6421 69.7367 24.0455 69.65 24.4921 69.65ZM33.2479 72.38C33.2479 72.4533 33.2412 72.55 33.2279 72.67H28.9279C28.9879 73.1367 29.1912 73.5133 29.5379 73.8C29.8912 74.08 30.3279 74.22 30.8479 74.22C31.4812 74.22 31.9912 74.0067 32.3779 73.58L32.9079 74.2C32.6679 74.48 32.3679 74.6933 32.0079 74.84C31.6545 74.9867 31.2579 75.06 30.8179 75.06C30.2579 75.06 29.7612 74.9467 29.3279 74.72C28.8945 74.4867 28.5579 74.1633 28.3179 73.75C28.0845 73.3367 27.9679 72.87 27.9679 72.35C27.9679 71.8367 28.0812 71.3733 28.3079 70.96C28.5412 70.5467 28.8579 70.2267 29.2579 70C29.6645 69.7667 30.1212 69.65 30.6279 69.65C31.1345 69.65 31.5845 69.7667 31.9779 70C32.3779 70.2267 32.6879 70.5467 32.9079 70.96C33.1345 71.3733 33.2479 71.8467 33.2479 72.38ZM30.6279 70.46C30.1679 70.46 29.7812 70.6 29.4679 70.88C29.1612 71.16 28.9812 71.5267 28.9279 71.98H32.3279C32.2745 71.5333 32.0912 71.17 31.7779 70.89C31.4712 70.6033 31.0879 70.46 30.6279 70.46ZM37.5609 74.69C37.4209 74.81 37.2476 74.9033 37.0409 74.97C36.8342 75.03 36.6209 75.06 36.4009 75.06C35.8676 75.06 35.4542 74.9167 35.1609 74.63C34.8676 74.3433 34.7209 73.9333 34.7209 73.4V70.49H33.8209V69.7H34.7209V68.54H35.6809V69.7H37.2009V70.49H35.6809V73.36C35.6809 73.6467 35.7509 73.8667 35.8909 74.02C36.0376 74.1733 36.2442 74.25 36.5109 74.25C36.8042 74.25 37.0542 74.1667 37.2609 74L37.5609 74.69ZM39.6415 70.59C39.8082 70.2833 40.0549 70.05 40.3815 69.89C40.7082 69.73 41.1049 69.65 41.5715 69.65V70.58C41.5182 70.5733 41.4449 70.57 41.3515 70.57C40.8315 70.57 40.4215 70.7267 40.1215 71.04C39.8282 71.3467 39.6815 71.7867 39.6815 72.36V75H38.7215V69.7H39.6415V70.59ZM42.7547 69.7H43.7147V75H42.7547V69.7ZM43.2347 68.68C43.0481 68.68 42.8914 68.62 42.7647 68.5C42.6447 68.38 42.5847 68.2333 42.5847 68.06C42.5847 67.8867 42.6447 67.74 42.7647 67.62C42.8914 67.4933 43.0481 67.43 43.2347 67.43C43.4214 67.43 43.5747 67.49 43.6947 67.61C43.8214 67.7233 43.8847 67.8667 43.8847 68.04C43.8847 68.22 43.8214 68.3733 43.6947 68.5C43.5747 68.62 43.4214 68.68 43.2347 68.68ZM47.8577 75.06C47.3177 75.06 46.8344 74.9433 46.4077 74.71C45.9877 74.4767 45.6577 74.1567 45.4177 73.75C45.1777 73.3367 45.0577 72.87 45.0577 72.35C45.0577 71.83 45.1777 71.3667 45.4177 70.96C45.6577 70.5467 45.9877 70.2267 46.4077 70C46.8344 69.7667 47.3177 69.65 47.8577 69.65C48.3377 69.65 48.7644 69.7467 49.1377 69.94C49.5177 70.1333 49.811 70.4133 50.0177 70.78L49.2877 71.25C49.121 70.9967 48.9144 70.8067 48.6677 70.68C48.421 70.5533 48.1477 70.49 47.8477 70.49C47.501 70.49 47.1877 70.5667 46.9077 70.72C46.6344 70.8733 46.4177 71.0933 46.2577 71.38C46.1044 71.66 46.0277 71.9833 46.0277 72.35C46.0277 72.7233 46.1044 73.0533 46.2577 73.34C46.4177 73.62 46.6344 73.8367 46.9077 73.99C47.1877 74.1433 47.501 74.22 47.8477 74.22C48.1477 74.22 48.421 74.1567 48.6677 74.03C48.9144 73.9033 49.121 73.7133 49.2877 73.46L50.0177 73.92C49.811 74.2867 49.5177 74.57 49.1377 74.77C48.7644 74.9633 48.3377 75.06 47.8577 75.06ZM54.0861 68H55.0861V74.13H58.8761V75H54.0861V68ZM62.0853 75.06C61.5586 75.06 61.0853 74.9433 60.6653 74.71C60.2453 74.4767 59.9153 74.1567 59.6753 73.75C59.4419 73.3367 59.3253 72.87 59.3253 72.35C59.3253 71.83 59.4419 71.3667 59.6753 70.96C59.9153 70.5467 60.2453 70.2267 60.6653 70C61.0853 69.7667 61.5586 69.65 62.0853 69.65C62.6119 69.65 63.0819 69.7667 63.4953 70C63.9153 70.2267 64.2419 70.5467 64.4753 70.96C64.7153 71.3667 64.8353 71.83 64.8353 72.35C64.8353 72.87 64.7153 73.3367 64.4753 73.75C64.2419 74.1567 63.9153 74.4767 63.4953 74.71C63.0819 74.9433 62.6119 75.06 62.0853 75.06ZM62.0853 74.22C62.4253 74.22 62.7286 74.1433 62.9953 73.99C63.2686 73.83 63.4819 73.61 63.6353 73.33C63.7886 73.0433 63.8653 72.7167 63.8653 72.35C63.8653 71.9833 63.7886 71.66 63.6353 71.38C63.4819 71.0933 63.2686 70.8733 62.9953 70.72C62.7286 70.5667 62.4253 70.49 62.0853 70.49C61.7453 70.49 61.4386 70.5667 61.1653 70.72C60.8986 70.8733 60.6853 71.0933 60.5253 71.38C60.3719 71.66 60.2953 71.9833 60.2953 72.35C60.2953 72.7167 60.3719 73.0433 60.5253 73.33C60.6853 73.61 60.8986 73.83 61.1653 73.99C61.4386 74.1433 61.7453 74.22 62.0853 74.22ZM71.2329 69.7V74.28C71.2329 75.2067 71.0029 75.89 70.5429 76.33C70.0829 76.7767 69.3963 77 68.4829 77C67.9829 77 67.5063 76.93 67.0529 76.79C66.5996 76.6567 66.2329 76.4633 65.9529 76.21L66.4129 75.47C66.6596 75.6833 66.9629 75.85 67.3229 75.97C67.6896 76.0967 68.0663 76.16 68.4529 76.16C69.0729 76.16 69.5296 76.0133 69.8229 75.72C70.1229 75.4267 70.2729 74.98 70.2729 74.38V73.96C70.0463 74.2333 69.7663 74.44 69.4329 74.58C69.1063 74.7133 68.7496 74.78 68.3629 74.78C67.8563 74.78 67.3963 74.6733 66.9829 74.46C66.5763 74.24 66.2563 73.9367 66.0229 73.55C65.7896 73.1567 65.6729 72.71 65.6729 72.21C65.6729 71.71 65.7896 71.2667 66.0229 70.88C66.2563 70.4867 66.5763 70.1833 66.9829 69.97C67.3963 69.7567 67.8563 69.65 68.3629 69.65C68.7629 69.65 69.1329 69.7233 69.4729 69.87C69.8196 70.0167 70.1029 70.2333 70.3229 70.52V69.7H71.2329ZM68.4729 73.94C68.8196 73.94 69.1296 73.8667 69.4029 73.72C69.6829 73.5733 69.8996 73.37 70.0529 73.11C70.2129 72.8433 70.2929 72.5433 70.2929 72.21C70.2929 71.6967 70.1229 71.2833 69.7829 70.97C69.4429 70.65 69.0063 70.49 68.4729 70.49C67.9329 70.49 67.4929 70.65 67.1529 70.97C66.8129 71.2833 66.6429 71.6967 66.6429 72.21C66.6429 72.5433 66.7196 72.8433 66.8729 73.11C67.0329 73.37 67.2496 73.5733 67.5229 73.72C67.8029 73.8667 68.1196 73.94 68.4729 73.94ZM73.0672 69.7H74.0272V75H73.0672V69.7ZM73.5472 68.68C73.3606 68.68 73.2039 68.62 73.0772 68.5C72.9572 68.38 72.8972 68.2333 72.8972 68.06C72.8972 67.8867 72.9572 67.74 73.0772 67.62C73.2039 67.4933 73.3606 67.43 73.5472 67.43C73.7339 67.43 73.8872 67.49 74.0072 67.61C74.1339 67.7233 74.1972 67.8667 74.1972 68.04C74.1972 68.22 74.1339 68.3733 74.0072 68.5C73.8872 68.62 73.7339 68.68 73.5472 68.68ZM78.6902 69.65C79.3635 69.65 79.8969 69.8467 80.2902 70.24C80.6902 70.6267 80.8902 71.1967 80.8902 71.95V75H79.9302V72.06C79.9302 71.5467 79.8069 71.16 79.5602 70.9C79.3135 70.64 78.9602 70.51 78.5002 70.51C77.9802 70.51 77.5702 70.6633 77.2702 70.97C76.9702 71.27 76.8202 71.7033 76.8202 72.27V75H75.8602V69.7H76.7802V70.5C76.9735 70.2267 77.2335 70.0167 77.5602 69.87C77.8935 69.7233 78.2702 69.65 78.6902 69.65Z" fill="#417876"/>
</svg>
