<svg viewBox="0 0 270 38" fill="none" xmlns="http://www.w3.org/2000/svg">
    <path d="M34.1157 37.0068L34.0514 11.6931L21.4588 32.638H18.5677L5.97506 12.2714V37.0068H0V0.513985H5.33258L20.1096 25.0567L34.6296 0.513985H40.0265L40.0907 37.0068H34.1157Z" fill="#1A2429"/>
    <path d="M65.813 37.5208C62.0866 37.5208 58.7029 36.707 55.6618 35.0794C52.6207 33.4518 50.2436 31.2245 48.5303 28.3976C46.817 25.5279 45.9604 22.3155 45.9604 18.7604C45.9604 15.2053 46.817 12.0144 48.5303 9.18746C50.2436 6.31772 52.6207 4.06904 55.6618 2.44142C58.7029 0.813807 62.0866 0 65.813 0C69.5822 0 72.9659 0.813807 75.9642 2.44142C79.0052 4.06904 81.3824 6.31772 83.0957 9.18746C84.809 12.0144 85.6656 15.2053 85.6656 18.7604C85.6656 22.3155 84.809 25.5279 83.0957 28.3976C81.3824 31.2245 79.0052 33.4518 75.9642 35.0794C72.9659 36.707 69.5822 37.5208 65.813 37.5208ZM65.813 32.124C68.3829 32.124 70.6958 31.5457 72.7518 30.3893C74.8077 29.2328 76.4139 27.648 77.5704 25.6349C78.7697 23.6218 79.3693 21.3303 79.3693 18.7604C79.3693 16.1905 78.7697 13.899 77.5704 11.8859C76.4139 9.87277 74.8077 8.28799 72.7518 7.13152C70.6958 5.97506 68.3829 5.39683 65.813 5.39683C63.2431 5.39683 60.9301 5.97506 58.8742 7.13152C56.8183 8.28799 55.1907 9.87277 53.9914 11.8859C52.8349 13.899 52.2567 16.1905 52.2567 18.7604C52.2567 21.3303 52.8349 23.6218 53.9914 25.6349C55.1907 27.648 56.8183 29.2328 58.8742 30.3893C60.9301 31.5457 63.2431 32.124 65.813 32.124Z" fill="#1A2429"/>
    <path d="M125.631 37.0068L125.567 11.6931L112.974 32.638H110.083L97.4907 12.2714V37.0068H91.5157V0.513985H96.8483L111.625 25.0567L126.145 0.513985H131.542L131.606 37.0068H125.631Z" fill="#1A2429"/>
    <path d="M168.251 31.8027V37.0068H140.881V0.513985H167.544V5.65382H147.113V15.9335H165.295V21.0091H147.113V31.8027H168.251Z" fill="#1A2429"/>
    <path d="M206.755 0.513985V37.0068H201.616L180.542 11.2434V37.0068H174.31V0.513985H179.45L200.523 26.4059V0.513985H206.755Z" fill="#1A2429"/>
    <path d="M222.51 5.65382H210.046V0.513985H241.206V5.65382H228.742V37.0068H222.51V5.65382Z" fill="#1A2429"/>
    <path d="M255.159 37.5208C252.332 37.5208 249.569 37.1353 246.871 36.3643C244.215 35.5505 242.138 34.4797 240.639 33.1519L243.08 28.2691C244.536 29.4684 246.357 30.4321 248.541 31.1603C250.768 31.8884 253.06 32.2525 255.416 32.2525C258.285 32.2525 260.384 31.7813 261.712 30.839C263.083 29.8967 263.768 28.676 263.768 27.1769C263.768 26.0204 263.361 25.0781 262.547 24.35C261.776 23.6218 260.791 23.065 259.592 22.6795C258.393 22.294 256.765 21.8871 254.709 21.4588C251.925 20.8592 249.655 20.2381 247.899 19.5956C246.185 18.9531 244.708 17.9466 243.466 16.576C242.266 15.1625 241.667 13.2565 241.667 10.8579C241.667 7.60268 242.973 4.98992 245.586 3.01965C248.241 1.00655 251.839 0 256.379 0C258.692 0 260.92 0.278408 263.061 0.835224C265.246 1.34921 267.109 2.12018 268.651 3.14815L266.402 8.15949C263.618 6.23205 260.213 5.26833 256.187 5.26833C253.403 5.26833 251.325 5.7609 249.955 6.74604C248.584 7.68834 247.899 8.93047 247.899 10.4724C247.899 11.6289 248.284 12.5712 249.055 13.2993C249.869 14.0275 250.876 14.5843 252.075 14.9698C253.317 15.3553 254.966 15.7622 257.022 16.1905C259.849 16.833 262.098 17.4754 263.768 18.1179C265.481 18.7176 266.938 19.7027 268.137 21.0733C269.379 22.444 270 24.2857 270 26.5987C270 29.9395 268.672 32.5951 266.017 34.5654C263.404 36.5357 259.785 37.5208 255.159 37.5208Z" fill="#1A2429"/>
    <path fill-rule="evenodd" clip-rule="evenodd" d="M65.813 37.5208C62.0866 37.5208 58.7029 36.707 55.6618 35.0794C52.6207 33.4518 50.2436 31.2245 48.5303 28.3976C46.817 25.5279 45.9604 22.3155 45.9604 18.7604C45.9604 15.2053 46.817 12.0144 48.5303 9.18746C50.2436 6.31772 52.6207 4.06904 55.6618 2.44142C58.7029 0.813807 62.0866 0 65.813 0C69.5822 0 72.9659 0.813807 75.9642 2.44142C79.0052 4.06904 81.3824 6.31772 83.0957 9.18746C84.809 12.0144 85.6656 15.2053 85.6656 18.7604C85.6656 22.3155 84.809 25.5279 83.0957 28.3976C81.3824 31.2245 79.0052 33.4518 75.9642 35.0794C72.9659 36.707 69.5822 37.5208 65.813 37.5208ZM65.813 32.124C68.3829 32.124 70.6958 31.5457 72.7518 30.3893C74.8077 29.2328 76.4139 27.648 77.5703 25.6349C78.7696 23.6218 79.3693 21.3303 79.3693 18.7604C79.3693 16.1905 78.7696 13.899 77.5703 11.8859C76.4139 9.87277 74.8077 8.28799 72.7518 7.13152C70.6958 5.97506 68.3829 5.39683 65.813 5.39683C63.2431 5.39683 60.9301 5.97506 58.8742 7.13152C56.8183 8.28799 55.1906 9.87277 53.9914 11.8859C52.8349 13.899 52.2567 16.1905 52.2567 18.7604C52.2567 21.3303 52.8349 23.6218 53.9914 25.6349C55.1906 27.648 56.8183 29.2328 58.8742 30.3893C60.9301 31.5457 63.2431 32.124 65.813 32.124Z" fill="url(#paint0_linear)"/>
    <defs>
        <linearGradient id="paint0_linear" x1="44.0704" y1="18.2678" x2="86.9024" y2="18.2678" gradientUnits="userSpaceOnUse">
            <stop stop-color="#417876"/>
            <stop offset="1" stop-color="#5DADA8"/>
        </linearGradient>
    </defs>
</svg>
